PathFileType	4	(X/Y/Z)	SUBJ51_1_walk_RCNL2025.trc
DataRate	CameraRate	NumFrames	NumMarkers	Units	OrigDataRate	OrigDataStartFrame	OrigNumFrames
100	100	8	25	mm	100	151	241
Frame#	Time	R_Shoulder			L_Shoulder			C7			J_Notch			R_Elbow			L_Elbow			R_Wrist			L_Wrist			R_Asis			L_Asis			Sacral			Thoracic			Sternum			R_Thigh_Lateral			R_Knee_Lateral			R_Shank_Lateral			R_Ankle_Lateral			R_Heel			R_Toe			L_Thigh_Lateral			L_Knee_Lateral			L_Shank_Lateral			L_Ankle_Lateral			L_Heel			L_Toe		
		X1	Y1	Z1	X2	Y2	Z2	X3	Y3	Z3	X4	Y4	Z4	X5	Y5	Z5	X6	Y6	Z6	X7	Y7	Z7	X8	Y8	Z8	X9	Y9	Z9	X10	Y10	Z10	X11	Y11	Z11	X12	Y12	Z12	X13	Y13	Z13	X14	Y14	Z14	X15	Y15	Z15	X16	Y16	Z16	X17	Y17	Z17	X18	Y18	Z18	X19	Y19	Z19	X20	Y20	Z20	X21	Y21	Z21	X22	Y22	Z22	X23	Y23	Z23	X24	Y24	Z24	X25	Y25	Z25
151	1.50000000	724.350464	1488.256958	-12.132258	735.080933	1477.517212	-467.324310	643.678162	1601.400024	-259.583557	787.152771	1484.771484	-244.482040	631.105042	1192.427246	79.780853	681.427368	1160.073364	-546.554199	708.013000	932.070312	81.664240	775.786713	915.330872	-535.764465	759.900696	1045.202393	-96.960281	784.659546	1034.031250	-336.544434	556.608521	1071.143066	-242.358887	542.200317	1394.110962	-252.150116	825.590027	1255.181885	-227.832108	803.935791	663.159180	7.527241	812.779663	542.923889	-37.515125	661.803223	402.352325	10.505051	515.134705	226.265686	-112.637245	489.056122	250.523682	-181.508224	597.791565	85.533913	-106.532722	735.345642	638.719666	-429.742615	719.454468	521.212158	-379.464417	696.527222	329.330505	-414.881561	659.557800	68.862679	-304.020111	603.834900	77.307098	-250.554306	812.834717	43.869526	-276.244446
152	1.51000000	736.263245	1488.063232	-11.590899	749.566956	1479.288086	-466.712402	656.925293	1601.939209	-259.165466	800.356567	1485.428101	-243.847137	638.841797	1192.242798	77.303825	702.229675	1161.796021	-548.286621	707.606476	929.574890	78.811762	805.843750	921.006378	-536.729065	773.853271	1046.434692	-98.566238	797.171448	1034.484497	-337.698303	569.695435	1071.657104	-241.563065	555.518982	1394.496094	-252.776276	838.821655	1255.912231	-228.160828	825.107666	666.842468	7.493126	835.655884	546.115417	-37.877781	690.272888	399.430420	10.550312	551.408997	216.021362	-111.916283	523.521606	237.966339	-180.821320	642.995483	81.926376	-104.377548	741.055115	638.519348	-429.858459	722.470154	521.060730	-379.862183	697.292786	329.405609	-415.105621	659.543335	68.875549	-303.765015	603.873901	77.410225	-250.380722	812.782349	43.890656	-276.214447
153	1.52000000	748.282593	1487.477295	-11.065212	764.066223	1480.728638	-466.073212	670.204773	1602.178711	-258.724731	813.587036	1485.773193	-243.212357	646.502563	1191.862671	74.920120	722.874695	1163.387085	-550.081665	707.403107	927.223511	75.832689	835.638275	926.912476	-537.598450	787.831360	1047.257080	-100.062439	809.679932	1034.660889	-338.691101	582.790710	1071.901001	-240.679947	568.858154	1394.615723	-253.315842	852.097168	1256.301880	-228.505447	845.767273	670.052368	7.264325	857.825134	548.829346	-38.506741	718.908386	395.481201	10.601805	588.559143	204.926712	-111.072823	558.777527	224.428589	-179.851807	688.935608	78.261993	-102.746422	746.949890	638.264221	-429.963165	725.650208	520.884521	-380.278595	698.161987	329.495056	-415.377777	659.546326	68.872559	-303.554260	603.952148	77.526962	-250.263794	812.747681	43.876926	-276.192383
154	1.53000000	760.406677	1486.505371	-10.535866	778.570068	1481.828491	-465.416046	683.528992	1602.116333	-258.258514	826.855713	1485.794678	-242.585358	654.106873	1191.282593	72.636391	743.397827	1164.834229	-551.926880	707.466888	924.989807	72.749716	865.097900	932.993774	-538.366180	801.859558	1047.657715	-101.362434	822.157104	1034.502930	-339.507996	595.895264	1071.886963	-239.708298	582.221741	1394.475464	-253.740891	865.412415	1256.336426	-228.868256	865.905396	672.723328	6.836899	879.258057	551.018921	-39.372990	747.706421	390.620850	10.661363	626.638794	193.146118	-110.111206	594.884277	210.091797	-178.607391	735.532776	74.651367	-101.609383	753.088562	637.932373	-430.058716	729.093384	520.659241	-380.701447	699.353943	329.564514	-415.672180	659.585266	68.871254	-303.403809	604.081909	77.685699	-250.237396	812.735168	43.824188	-276.179565
155	1.54000000	772.628540	1485.167603	-9.982116	793.070374	1482.587646	-464.749908	696.909058	1601.754761	-257.762207	840.172729	1485.485474	-241.970901	661.686584	1190.510742	70.458496	763.833984	1166.135864	-553.803955	707.858063	922.858795	69.593428	894.163116	939.198914	-539.028656	815.943848	1047.631226	-102.406128	834.587036	1033.962646	-340.150238	609.011475	1071.619995	-238.646576	595.612305	1394.082031	-254.027924	878.762085	1256.008545	-229.253922	885.507751	674.799133	6.205732	899.929626	552.638672	-40.434864	776.665039	384.977844	10.732811	665.677124	180.869263	-109.043274	631.919250	195.166855	-177.119797	782.684265	71.206795	-100.914658	759.513245	637.499329	-430.138092	732.881958	520.363464	-381.103851	701.011292	329.587097	-415.953430	659.671814	68.883804	-303.311554	604.267761	77.903595	-250.303711	812.752441	43.731510	-276.174042
156	1.55000000	784.939026	1483.494751	-9.386482	807.562012	1483.014648	-464.081024	710.353516	1601.101562	-257.229553	853.546265	1484.843628	-241.370270	669.283508	1189.564575	68.390808	784.212708	1167.299194	-555.690063	708.631683	920.824371	66.399935	922.791138	945.482880	-539.587341	830.070312	1047.177368	-103.163109	846.976013	1033.012207	-340.633820	622.144714	1071.095459	-237.493912	609.031433	1393.441772	-254.160629	892.142639	1255.318237	-229.668579	904.548950	676.237427	5.369047	919.818665	553.647888	-41.644241	805.769836	378.689423	10.818078	705.671143	168.313705	-107.890923	669.969727	179.888992	-175.446640	830.270386	68.052917	-100.589668	766.248474	636.940247	-430.187134	737.074707	519.981873	-381.449554	703.174194	329.549042	-416.189026	659.811035	68.917824	-303.261108	604.504700	78.187988	-250.435547	812.808716	43.601200	-276.171722
157	1.56000000	797.331177	1481.525879	-8.738765	822.043884	1483.125000	-463.410309	723.867126	1600.167114	-256.653870	866.984314	1483.874512	-240.779526	676.945618	1188.469604	66.435936	804.553284	1168.336792	-557.559875	709.831482	918.884460	63.205107	950.951996	951.807190	-540.046997	844.217590	1046.302612	-103.629494	859.350525	1031.647583	-340.982788	635.304871	1070.301514	-236.251572	622.479553	1392.560547	-254.133148	905.553650	1254.272583	-230.116516	922.984253	677.007935	4.330813	938.903442	554.016663	-42.956173	834.976868	371.902405	10.914977	746.580688	155.724884	-106.685028	709.111145	164.516266	-173.667114	878.156189	65.335762	-100.542847	773.300537	636.232727	-430.189850	741.704102	519.505615	-381.702423	705.797974	329.449158	-416.358124	660.003845	68.978737	-303.230591	604.782043	78.539970	-250.590561	812.911743	43.438774	-276.171661
158	1.57000000	809.804810	1479.303833	-8.037024	836.519470	1482.939331	-462.731995	737.451233	1598.964111	-256.030121	880.494568	1482.590942	-240.189758	684.720337	1187.255859	64.595016	824.860107	1169.262329	-559.388489	711.482483	917.035156	60.036827	978.621796	958.137573	-540.412140	858.372620	1045.022705	-103.823410	871.750916	1029.888794	-341.221466	648.507019	1069.223022	-234.923920	635.957581	1391.444336	-253.950684	918.998352	1252.886353	-230.595749	940.738342	677.083740	3.100626	957.158264	553.731445	-44.337154	864.200867	364.779053	11.014912	788.324280	143.373291	-105.460350	749.376282	149.329926	-171.869904	926.188782	63.227707	-100.666428	780.657043	635.361572	-430.136261	746.775879	518.931091	-381.838776	708.794922	329.294647	-416.453552	660.248840	69.071182	-303.201294	605.091675	78.957451	-250.729843	813.064331	43.251232	-276.179321
